<?xml version="1.0" standalone="no"?>
<!DOCTYPE svg PUBLIC "-//W3C//DTD SVG 20010904//EN"
 "http://www.w3.org/TR/2001/REC-SVG-20010904/DTD/svg10.dtd">
<svg version="1.0" xmlns="http://www.w3.org/2000/svg"
 width="1000.000000pt" height="600.000000pt" viewBox="0 0 1000.000000 600.000000"
 preserveAspectRatio="xMidYMid meet">

<g transform="translate(0.000000,600.000000) scale(0.100000,-0.100000)"
fill="#000000" stroke="none">
<path d="M170 5520 l-155 -149 86 -88 c782 -799 4886 -4948 4895 -4948 7 0
742 738 1635 1640 892 902 2012 2033 2487 2513 l866 873 -155 155 -155 155
-2334 -2361 c-1284 -1298 -2340 -2359 -2346 -2357 -6 1 -945 949 -2088 2107
-1143 1158 -2191 2218 -2330 2357 l-251 252 -155 -149z"/>
</g>
</svg>
